<?xml version="1.0" encoding="UTF-8"?>
<svg version="1.1" xmlns="http://www.w3.org/2000/svg" width="200" height="200">
<path d="M0 0 C66 0 132 0 200 0 C200 66 200 132 200 200 C134 200 68 200 0 200 C0 134 0 68 0 0 Z " fill="#FEFEFD" transform="translate(0,0)"/>
<path d="M0 0 C4.0690329 1.50031381 7.68918215 3.44967565 11.4375 5.625 C12.04875732 5.97691406 12.66001465 6.32882813 13.28979492 6.69140625 C16.34648292 8.45218386 19.3914383 10.23093968 22.4296875 12.0234375 C30.11124671 16.51173884 37.90926963 20.43534617 45.9921875 24.140625 C59.96942128 30.58718377 68.66148506 37.50683321 74.1875 52.4375 C77.91323295 64.46851266 79.27470298 77.4698687 80 90 C80.66 90 81.32 90 82 90 C83.88124071 84.07124139 85.53863356 78.09251492 87.0625 72.0625 C87.23765137 71.3705957 87.41280273 70.67869141 87.59326172 69.96582031 C88.55584275 66.07328577 89.30664811 62.21698138 89.875 58.25 C91.89903314 46.72858061 98.40397838 37.37854947 107.88671875 30.6640625 C111.12224777 28.73001594 114.5677072 27.34576091 118.04296875 25.91015625 C124.13197935 23.07834094 129.92795196 19.39577497 135 15 C130.92130282 26.06222258 123.1682328 36.67676761 114 44 C101.84695358 56.96818977 94.61930137 73.53864019 87.20947266 89.44287109 C86.10200696 91.78433167 84.95611003 94.09995418 83.78515625 96.41015625 C82.44614688 99.06210578 81.2506605 101.69815059 80.25 104.5 C79.8375 105.655 79.425 106.81 79 108 C78.67 108 78.34 108 78 108 C77.9484375 107.20980469 77.896875 106.41960937 77.84375 105.60546875 C76.63329499 93.5696945 72.58081652 80.61578497 65 71 C64.5875 69.7625 64.175 68.525 63.75 67.25 C60.34091071 57.84021782 51.60612964 51.9488747 44 46 C42.82027694 45.07686836 41.64059079 44.15368955 40.4609375 43.23046875 C39.55939941 42.52506958 39.55939941 42.52506958 38.63964844 41.80541992 C32.95176803 37.35254829 27.2997335 32.9171625 22 28 C21.32066406 27.38511719 20.64132813 26.77023438 19.94140625 26.13671875 C14.90182552 21.36663432 10.66232486 16.15598938 6.5 10.625 C5.97116211 9.9225415 5.44232422 9.22008301 4.89746094 8.49633789 C1.13211994 3.39635981 1.13211994 3.39635981 0 0 Z " fill="#FAAB27" transform="translate(21,32)"/>
<path d="M0 0 C4.0690329 1.50031381 7.68918215 3.44967565 11.4375 5.625 C12.04875732 5.97691406 12.66001465 6.32882813 13.28979492 6.69140625 C16.34648292 8.45218386 19.3914383 10.23093968 22.4296875 12.0234375 C30.11124671 16.51173884 37.90926963 20.43534617 45.9921875 24.140625 C58.74459779 30.02227252 67.38906762 36.02076102 73.03515625 49.46484375 C74.47058483 53.47736735 75.13472713 56.71118627 75 61 C74.48953125 60.64808594 73.9790625 60.29617187 73.453125 59.93359375 C65.07133942 54.24170744 56.64916477 49.04967946 47.29516602 45.11767578 C38.66730804 41.48498752 31.83328963 37.54206876 25 31 C24.03964844 30.11699219 23.07929687 29.23398437 22.08984375 28.32421875 C14.00027032 20.70580636 3.56533975 10.69601925 0 0 Z " fill="#056CAD" transform="translate(21,32)"/>
<path d="M0 0 C0.495 0.99 0.495 0.99 1 2 C-0.25938939 4.27961589 -1.55770886 6.40217289 -3 8.5625 C-3.42007324 9.19365723 -3.84014648 9.82481445 -4.27294922 10.47509766 C-5.12247705 11.74210774 -5.97643927 13.00615661 -6.83496094 14.26708984 C-7.80115094 15.7042266 -8.72303296 17.17103664 -9.6328125 18.64453125 C-13.98643231 25.15216715 -19.7988415 27.9605617 -26.671875 31.2734375 C-29.45292936 32.71619105 -30.94443175 33.76628251 -33 36 C-33.66 36 -34.32 36 -35 36 C-35.33 36.99 -35.66 37.98 -36 39 C-36.66 39 -37.32 39 -38 39 C-38.2475 39.598125 -38.495 40.19625 -38.75 40.8125 C-40.16370012 43.28647521 -41.65055383 44.43370255 -44 46 C-43.57798263 35.02754847 -38.15557163 26.19022057 -30.23046875 18.8359375 C-25.83412949 15.21723444 -21.21606039 13.0859198 -15.9609375 10.91015625 C-9.96863746 8.12886958 -4.53378914 4.82561925 0 0 Z " fill="#8ED03B" transform="translate(155,47)"/>
<path d="M0 0 C4.0690329 1.50031381 7.68918215 3.44967565 11.4375 5.625 C12.04875732 5.97691406 12.66001465 6.32882813 13.28979492 6.69140625 C16.34648292 8.45218386 19.3914383 10.23093968 22.4296875 12.0234375 C30.11124671 16.51173884 37.90926963 20.43534617 45.9921875 24.140625 C58.74459779 30.02227252 67.38906762 36.02076102 73.03515625 49.46484375 C74.43231686 53.37039505 75.40616752 56.80293561 75 61 C72.0625 59.375 72.0625 59.375 69 57 C68.375 54.125 68.375 54.125 68 51 C64.83006558 44.92429237 59.15764907 39.07882454 53 36 C53 35.34 53 34.68 53 34 C51.87851563 33.81050781 51.87851563 33.81050781 50.734375 33.6171875 C43.2452909 31.92679423 36.63171135 26.54197094 30.25 22.4375 C29.5168457 21.96650879 28.78369141 21.49551758 28.02832031 21.01025391 C24.18475908 18.51255365 20.52514266 15.94069493 17 13 C15.654635 11.88512584 14.30109461 10.78000224 12.9375 9.6875 C12.28652344 9.15511719 11.63554688 8.62273438 10.96484375 8.07421875 C9.0371739 6.76389196 9.0371739 6.76389196 6.75390625 7.33203125 C6.17511719 7.55246094 5.59632812 7.77289063 5 8 C0 2.25 0 2.25 0 0 Z " fill="#3489C0" transform="translate(21,32)"/>
<path d="M0 0 C10.37340323 3.16203271 26.06481205 9.25925548 32.6015625 18.1875 C34.30962958 21.62271871 35.21288012 25.09585007 36.0625 28.8125 C36.22298828 29.48603516 36.38347656 30.15957031 36.54882812 30.85351562 C36.87271075 32.21278208 37.19270843 33.57298017 37.50878906 34.93408203 C38.01471736 37.06189775 38.56279925 39.1762924 39.11328125 41.29296875 C39.92845938 44.70091609 40.17410645 47.51787102 40 51 C35.10081969 48.73108287 33.45535519 45.65586413 31.4375 40.875 C31.137229 40.20138428 30.83695801 39.52776855 30.52758789 38.83374023 C29.27062174 36.00259144 28.06375033 33.15339923 26.875 30.29296875 C21.68721714 17.9503687 12.15248498 9.74485097 1.3984375 2.09375 C0.93695313 1.7328125 0.47546875 1.371875 0 1 C0 0.67 0 0.34 0 0 Z " fill="#F9A618" transform="translate(60,73)"/>
<path d="M0 0 C0.97591583 3.38317487 0.85856655 5.5657338 0 9 C-2.97 8.505 -2.97 8.505 -6 8 C-6 9.65 -6 11.3 -6 13 C-3.69 12.34 -1.38 11.68 1 11 C0.67 12.32 0.34 13.64 0 15 C-3.63 15 -7.26 15 -11 15 C-11 14.34 -11 13.68 -11 13 C-11.66 13 -12.32 13 -13 13 C-13 13.66 -13 14.32 -13 15 C-14.32 15 -15.64 15 -17 15 C-19.25 12 -19.25 12 -21 9 C-21 10.65 -21 12.3 -21 14 C-22.32 13.67 -23.64 13.34 -25 13 C-24.67 9.04 -24.34 5.08 -24 1 C-17.47692308 0.63076923 -17.47692308 0.63076923 -15.0625 2.5 C-14.711875 2.995 -14.36125 3.49 -14 4 C-13.54625 3.34 -13.0925 2.68 -12.625 2 C-8.66767967 -1.0151012 -4.80995855 -0.33045517 0 0 Z " fill="#FCF9F2" transform="translate(129,150)"/>
<path d="M0 0 C0.33 0.66 0.66 1.32 1 2 C-0.25940384 4.27964205 -1.55749574 6.40227707 -3 8.5625 C-3.42079834 9.19365723 -3.84159668 9.82481445 -4.27514648 10.47509766 C-5.12568387 11.74192431 -5.98037922 13.00596994 -6.83935547 14.26708984 C-7.79909996 15.70004449 -8.70583841 17.16834378 -9.59765625 18.64453125 C-14.67124133 26.36991013 -22.81026844 29.39179894 -31 33 C-30.67 31.68 -30.34 30.36 -30 29 C-29.34 29 -28.68 29 -28 29 C-27.7525 27.7315625 -27.7525 27.7315625 -27.5 26.4375 C-25.4449427 21.72799369 -22.21208405 18.88488021 -18 16 C-15.7421875 15.30078125 -15.7421875 15.30078125 -14 15 C-14 13.68 -14 12.36 -14 11 C-12.29296875 9.4765625 -12.29296875 9.4765625 -10 8 C-8.43478818 6.79518149 -6.87233451 5.58677226 -5.3125 4.375 C-4.52488281 3.76398437 -3.73726562 3.15296875 -2.92578125 2.5234375 C-1.10452923 1.14314996 -1.10452923 1.14314996 0 0 Z " fill="#ACDA6C" transform="translate(155,47)"/>
<path d="M0 0 C0.66 0.33 1.32 0.66 2 1 C1.18208984 1.93005859 1.18208984 1.93005859 0.34765625 2.87890625 C-9.89759767 14.91051214 -16.75640892 28.12416772 -23.37060547 42.40722656 C-23.8142041 43.36209961 -24.25780273 44.31697266 -24.71484375 45.30078125 C-25.10792725 46.15841064 -25.50101074 47.01604004 -25.90600586 47.8996582 C-27 50 -27 50 -29 52 C-29.43200679 47.24792529 -27.98489083 44.21789302 -26 40 C-25.34 40 -24.68 40 -24 40 C-23.82984375 39.29875 -23.6596875 38.5975 -23.484375 37.875 C-22.14891154 32.64680262 -20.68041418 27.97070095 -18.09375 23.23828125 C-16.67943496 20.34398655 -15.68933488 17.35199479 -14.625 14.3125 C-11.91423036 7.14180967 -9.33489827 4.92397977 -2.75 1.125 C-1.8425 0.75375 -0.935 0.3825 0 0 Z " fill="#FBC165" transform="translate(134,74)"/>
<path d="M0 0 C2.97 0 5.94 0 9 0 C9.95904856 3.83619425 9.91892116 5.32431536 9 9 C6.03 8.505 6.03 8.505 3 8 C3 9.65 3 11.3 3 13 C5.31 12.34 7.62 11.68 10 11 C10 11.99 10 12.98 10 14 C6.7 14 3.4 14 0 14 C0 9.38 0 4.76 0 0 Z " fill="#FAC570" transform="translate(120,150)"/>
<path d="M0 0 C4.29 0 8.58 0 13 0 C13 0.66 13 1.32 13 2 C12.34 2 11.68 2 11 2 C10.79503906 2.69867188 10.59007812 3.39734375 10.37890625 4.1171875 C10.10949219 5.02726563 9.84007812 5.93734375 9.5625 6.875 C9.29566406 7.77992188 9.02882813 8.68484375 8.75390625 9.6171875 C8 12 8 12 7 14 C6.34 14 5.68 14 5 14 C4.35366725 12.22934889 3.7079517 10.45847247 3.0625 8.6875 C2.70285156 7.70136719 2.34320312 6.71523437 1.97265625 5.69921875 C1.29114035 3.8079437 0.6357189 1.90715671 0 0 Z " fill="#FBE9CF" transform="translate(21,150)"/>
<path d="M0 0 C2.31 0 4.62 0 7 0 C8.1369863 4.54794521 8.1369863 4.54794521 7.375 7.0625 C6.7383589 9.15972147 6.7383589 9.15972147 8.4375 11.25 C8.953125 11.8275 9.46875 12.405 10 13 C7.11424181 12.60196439 6.17810487 12.20990931 4.25 9.9375 C3.8375 9.298125 3.425 8.65875 3 8 C3 9.65 3 11.3 3 13 C1.68 12.67 0.36 12.34 -1 12 C-0.67 8.04 -0.34 4.08 0 0 Z " fill="#F9C570" transform="translate(105,151)"/>
<path d="M0 0 C1.33333333 0 2.66666667 0 4 0 C5.71515417 10.31249926 7.39507314 20.54936693 8 31 C8.66 31 9.32 31 10 31 C9.505 32.485 9.505 32.485 9 34 C6.17653291 31.17653291 5.88376235 27.90721518 5.0625 24.125 C4.71565726 22.58315011 4.36799558 21.04148422 4.01953125 19.5 C3.8488916 18.73816406 3.67825195 17.97632812 3.50244141 17.19140625 C2.59035541 13.21332854 1.54932778 9.26817737 0.515625 5.3203125 C0 3 0 3 0 0 Z " fill="#F6C270" transform="translate(93,91)"/>
<path d="M0 0 C0.66 0.33 1.32 0.66 2 1 C-0.97 8.92 -0.97 8.92 -4 17 C-4.99 17 -5.98 17 -7 17 C-7 15.68 -7 14.36 -7 13 C-7.66 13 -8.32 13 -9 13 C-8.36928821 7.53383114 -3.8240155 3.62275153 0 0 Z " fill="#F6A71A" transform="translate(120,83)"/>
<path d="M0 0 C5.09882455 1.5280389 9.65665659 3.71036856 14.375 6.125 C15.11105469 6.49753906 15.84710938 6.87007813 16.60546875 7.25390625 C18.40550358 8.1656122 20.20301402 9.08229932 22 10 C16.67416995 12.85312324 16.67416995 12.85312324 14 13 C11.5625 11.26953125 11.5625 11.26953125 9 8.8125 C8.154375 8.01457031 7.30875 7.21664062 6.4375 6.39453125 C4.27959782 4.27466901 2.13154575 2.14634815 0 0 Z " fill="#F3A824" transform="translate(60,73)"/>
<path d="M0 0 C0.99 0 1.98 0 3 0 C2.67 4.62 2.34 9.24 2 14 C-0.96404505 11.19195732 -3.44499019 8.81684226 -5 5 C-5.66 5 -6.32 5 -7 5 C-6.67 7.97 -6.34 10.94 -6 14 C-6.66 14 -7.32 14 -8 14 C-8.33 9.71 -8.66 5.42 -9 1 C-4.40962044 2.14759489 -3.66330818 3.29039218 -1 7 C-0.67 4.69 -0.34 2.38 0 0 Z " fill="#F8B33F" transform="translate(63,150)"/>
<path d="M0 0 C1.32 0 2.64 0 4 0 C4 0.66 4 1.32 4 2 C3.2265625 2.6496875 3.2265625 2.6496875 2.4375 3.3125 C0.70744585 4.94179551 0.70744585 4.94179551 1.1875 7.4375 C1.93348829 9.79023229 2.80334592 11.84602265 4 14 C2.68 14 1.36 14 0 14 C-0.66 12.68 -1.32 11.36 -2 10 C-2.99 11.32 -3.98 12.64 -5 14 C-6.32 13.67 -7.64 13.34 -9 13 C-8.319375 12.46375 -7.63875 11.9275 -6.9375 11.375 C-4.63957977 9.10562331 -4.63957977 9.10562331 -5.1875 5.875 C-5.87866949 3.08673426 -5.87866949 3.08673426 -7 1 C-4 1 -4 1 -2.3125 2.5 C-1.879375 2.995 -1.44625 3.49 -1 4 C-0.67 2.68 -0.34 1.36 0 0 Z " fill="#8C9A9F" transform="translate(171,150)"/>
<path d="M0 0 C0.99 0 1.98 0 3 0 C4.38671875 1.53125 4.38671875 1.53125 5.6875 3.5 C6.12449219 4.1496875 6.56148437 4.799375 7.01171875 5.46875 C7.33785156 5.9740625 7.66398438 6.479375 8 7 C8.33 4.69 8.66 2.38 9 0 C9.33 0 9.66 0 10 0 C10 4.29 10 8.58 10 13 C7.35247996 10.42215154 5.05567935 8.08351902 3 5 C3 7.64 3 10.28 3 13 C2.01 13 1.02 13 0 13 C0 8.71 0 4.42 0 0 Z " fill="#8C9FA5" transform="translate(136,151)"/>
<path d="M0 0 C2.97 0 5.94 0 9 0 C8.67 0.99 8.34 1.98 8 3 C6.35 2.67 4.7 2.34 3 2 C3 3.32 3 4.64 3 6 C4.65 5.67 6.3 5.34 8 5 C7.67 6.32 7.34 7.64 7 9 C5.68 8.67 4.36 8.34 3 8 C3 9.65 3 11.3 3 13 C5.31 12.34 7.62 11.68 10 11 C9.67 11.99 9.34 12.98 9 14 C6.03 14 3.06 14 0 14 C0 9.38 0 4.76 0 0 Z " fill="#F9BE5F" transform="translate(39,150)"/>
<path d="M0 0 C0.66 0 1.32 0 2 0 C3.7265625 1.96875 3.7265625 1.96875 5.625 4.5 C6.25664063 5.3353125 6.88828125 6.170625 7.5390625 7.03125 C8.02117187 7.6809375 8.50328125 8.330625 9 9 C5.36147686 9.95792977 1.72908331 10.49800802 -2 11 C-2.33 10.01 -2.66 9.02 -3 8 C-2.01 8 -1.02 8 0 8 C0 5.36 0 2.72 0 0 Z " fill="#FBF5E4" transform="translate(56,155)"/>
<path d="M0 0 C0.66 0 1.32 0 2 0 C2.33 3.96 2.66 7.92 3 12 C4.65 11.34 6.3 10.68 8 10 C8.33 6.7 8.66 3.4 9 0 C9.66 0.33 10.32 0.66 11 1 C10.88610125 2.79240663 10.75852313 4.58394835 10.625 6.375 C10.55539063 7.37273437 10.48578125 8.37046875 10.4140625 9.3984375 C10 12 10 12 8 14 C5.5625 14.375 5.5625 14.375 3 14 C0.86291384 11.80214362 0.05573255 10.49044646 -0.29296875 7.421875 C-0.25816406 6.54015625 -0.22335938 5.6584375 -0.1875 4.75 C-0.16042969 3.85796875 -0.13335937 2.9659375 -0.10546875 2.046875 C-0.07066406 1.37140625 -0.03585938 0.6959375 0 0 Z " fill="#F9B03A" transform="translate(87,151)"/>
<path d="M0 0 C0.66 0 1.32 0 2 0 C3.32 2.31 4.64 4.62 6 7 C6.99 5.68 7.98 4.36 9 3 C8.49287967 6.71888239 7.88391785 9.73454239 6 13 C5.34 13 4.68 13 4 13 C3.32942113 11.2097939 2.6636531 9.41778511 2 7.625 C1.62875 6.62726563 1.2575 5.62953125 0.875 4.6015625 C0 2 0 2 0 0 Z " fill="#F8B74A" transform="translate(22,151)"/>
<path d="M0 0 C0.33 0.66 0.66 1.32 1 2 C-0.36325084 4.46627158 -1.76699996 6.77769919 -3.3125 9.125 C-3.93801758 10.11306641 -3.93801758 10.11306641 -4.57617188 11.12109375 C-5.65786234 12.78762164 -6.82335857 14.39909887 -8 16 C-8.66 16 -9.32 16 -10 16 C-8.74022689 12.51139754 -7.27478836 9.9117291 -5 7 C-4.484375 6.13375 -3.96875 5.2675 -3.4375 4.375 C-2 2 -2 2 0 0 Z " fill="#B1DD79" transform="translate(155,47)"/>
<path d="M0 0 C4.875 4.75 4.875 4.75 6 7 C4.68 7 3.36 7 2 7 C2 7.99 2 8.98 2 10 C0.35 10 -1.3 10 -3 10 C-2.67 9.34 -2.34 8.68 -2 8 C-1.34 8 -0.68 8 0 8 C0 5.36 0 2.72 0 0 Z " fill="#ECF0F0" transform="translate(138,155)"/>
<path d="M0 0 C-1.31224548 3.93673644 -2.91910327 6.22719294 -6 9 C-6 8.34 -6 7.68 -6 7 C-7.32 6.34 -8.64 5.68 -10 5 C-8.71186658 4.16121545 -7.41936744 3.32913217 -6.125 2.5 C-5.40570313 2.0359375 -4.68640625 1.571875 -3.9453125 1.09375 C-2 0 -2 0 0 0 Z " fill="#A3D962" transform="translate(151,52)"/>
<path d="M0 0 C1.32 0.66 2.64 1.32 4 2 C2.125 7.75 2.125 7.75 1 10 C0.34 10 -0.32 10 -1 10 C-1.125 3.375 -1.125 3.375 0 0 Z " fill="#FCF4E3" transform="translate(102,112)"/>
<path d="M0 0 C5.75 0.875 5.75 0.875 8 2 C7.67 2.66 7.34 3.32 7 4 C4.67843403 4.40729228 2.3431213 4.74438677 0 5 C0 3.35 0 1.7 0 0 Z " fill="#FBF4EA" transform="translate(123,158)"/>
<path d="M0 0 C6.75 3.75 6.75 3.75 9 6 C8.67 6.99 8.34 7.98 8 9 C6.68 8.67 5.36 8.34 4 8 C3.67 6.35 3.34 4.7 3 3 C2.01 3 1.02 3 0 3 C0 2.01 0 1.02 0 0 Z " fill="#ECA11F" transform="translate(83,84)"/>
<path d="M0 0 C3.3 0.33 6.6 0.66 10 1 C10.33 2.65 10.66 4.3 11 6 C6.80639551 5.32902328 3.59665648 3.1441606 0 1 C0 0.67 0 0.34 0 0 Z " fill="#1972A3" transform="translate(80,82)"/>
<path d="M0 0 C4.23429756 1.31061591 8.07407404 2.94356259 12 5 C11.34 6.32 10.68 7.64 10 9 C8.33043913 7.69118353 6.66441696 6.37785174 5 5.0625 C4.071875 4.33160156 3.14375 3.60070312 2.1875 2.84765625 C1.465625 2.23792969 0.74375 1.62820312 0 1 C0 0.67 0 0.34 0 0 Z " fill="#F2AF35" transform="translate(60,73)"/>
<path d="M0 0 C0.66 1.32 1.32 2.64 2 4 C1.34 4 0.68 4 0 4 C0.33 5.98 0.66 7.96 1 10 C-0.32 10.99 -1.64 11.98 -3 13 C-2.52060632 8.28596212 -2.03165952 4.33420699 0 0 Z " fill="#A0D254" transform="translate(114,80)"/>
<path d="M0 0 C0.99 0 1.98 0 3 0 C2.67 4.62 2.34 9.24 2 14 C-0.95016944 8.09966113 -0.93495748 6.44081822 0 0 Z " fill="#FBCD84" transform="translate(63,150)"/>
<path d="M0 0 C4.75 0.75 4.75 0.75 7 3 C5 5 5 5 2.375 5.125 C1.59125 5.08375 0.8075 5.0425 0 5 C0 3.35 0 1.7 0 0 Z " fill="#FCF5EF" transform="translate(42,158)"/>
<path d="M0 0 C0.99 0 1.98 0 3 0 C2.88610125 1.79240663 2.75852313 3.58394835 2.625 5.375 C2.52058594 6.87160156 2.52058594 6.87160156 2.4140625 8.3984375 C2 11 2 11 0 13 C0 8.71 0 4.42 0 0 Z " fill="#FAA71E" transform="translate(99,127)"/>
<path d="M0 0 C0.53625 0.226875 1.0725 0.45375 1.625 0.6875 C-0.59434164 4.01651247 -1.72183329 4.43773244 -5.375 5.6875 C-6.365 4.6975 -7.355 3.7075 -8.375 2.6875 C-2.95961538 -0.38942308 -2.95961538 -0.38942308 0 0 Z " fill="#95D34B" transform="translate(141.375,58.3125)"/>
<path d="M0 0 C0.66 0 1.32 0 2 0 C1.773125 1.2375 1.54625 2.475 1.3125 3.75 C0.90333102 6.86853111 0.81673542 7.68127899 2.4375 10.5 C2.953125 10.995 3.46875 11.49 4 12 C2.1875 11.8125 2.1875 11.8125 0 11 C-1.75 8.4375 -1.75 8.4375 -3 6 C-2.34 6 -1.68 6 -1 6 C-0.67 4.02 -0.34 2.04 0 0 Z " fill="#F9B03E" transform="translate(111,152)"/>
<path d="M0 0 C4.75 1.875 4.75 1.875 7 3 C6.67 4.65 6.34 6.3 6 8 C1.125 3.375 1.125 3.375 0 0 Z " fill="#247EB5" transform="translate(21,32)"/>
<path d="M0 0 C0.66 0.33 1.32 0.66 2 1 C0.25 3 0.25 3 -2 5 C-3.32 5 -4.64 5 -6 5 C-6 3.68 -6 2.36 -6 1 C-4.7934375 1.0309375 -4.7934375 1.0309375 -3.5625 1.0625 C-1.06645115 1.29633621 -1.06645115 1.29633621 0 0 Z " fill="#FCF8F1" transform="translate(48,151)"/>
<path d="M0 0 C1.85776765 3.13498292 2.20140476 5.37471432 2 9 C0.35 8.01 -1.3 7.02 -3 6 C-2.01 4.02 -1.02 2.04 0 0 Z " fill="#4590BD" transform="translate(94,84)"/>
<path d="M0 0 C0.66 0.33 1.32 0.66 2 1 C1.88610125 2.79240663 1.75852313 4.58394835 1.625 6.375 C1.55539063 7.37273437 1.48578125 8.37046875 1.4140625 9.3984375 C1 12 1 12 -1 14 C-3.625 14.125 -3.625 14.125 -6 14 C-4.68 13.67 -3.36 13.34 -2 13 C-1.34 8.71 -0.68 4.42 0 0 Z " fill="#F9C673" transform="translate(96,151)"/>
<path d="M0 0 C0.66 0 1.32 0 2 0 C1.45660208 4.56454251 0.20536179 7.9728176 -2 12 C-2.33 12 -2.66 12 -3 12 C-3.43200679 7.24792529 -1.98489083 4.21789302 0 0 Z " fill="#FBBE5C" transform="translate(108,114)"/>
<path d="M0 0 C2.12046792 3.53411321 2.53199289 6.94393835 3 11 C2.54625 10.505 2.0925 10.01 1.625 9.5 C0.12364481 7.77390663 0.12364481 7.77390663 -2 8 C-2.33 8.99 -2.66 9.98 -3 11 C-3 9.68 -3 8.36 -3 7 C-2.34 7 -1.68 7 -1 7 C-0.67 4.69 -0.34 2.38 0 0 Z " fill="#F9AB27" transform="translate(96,106)"/>
<path d="M0 0 C0.66 0 1.32 0 2 0 C3.2890625 1.75 3.2890625 1.75 4.625 4 C5.07101563 4.7425 5.51703125 5.485 5.9765625 6.25 C6.31429687 6.8275 6.65203125 7.405 7 8 C5.68 8 4.36 8 3 8 C0.82542733 5.12645755 0 3.63563409 0 0 Z " fill="#768D95" transform="translate(168,156)"/>
<path d="M0 0 C0.66 0 1.32 0 2 0 C3.625 2.5 3.625 2.5 5 5 C4.360625 5.12375 3.72125 5.2475 3.0625 5.375 C2.0415625 5.684375 2.0415625 5.684375 1 6 C0.67 6.66 0.34 7.32 0 8 C0 5.36 0 2.72 0 0 Z " fill="#FBECD5" transform="translate(56,155)"/>
<path d="M0 0 C4.75 0.75 4.75 0.75 7 3 C7.125 5.625 7.125 5.625 7 8 C4.35247996 5.42215154 2.05567935 3.08351902 0 0 Z " fill="#F9A71C" transform="translate(76,86)"/>
<path d="M0 0 C-0.33 1.32 -0.66 2.64 -1 4 C-3.97 3.505 -3.97 3.505 -7 3 C-7 2.34 -7 1.68 -7 1 C-3.375 -1.125 -3.375 -1.125 0 0 Z " fill="#87CE35" transform="translate(129,69)"/>
<path d="M0 0 C6.75 2.75 6.75 2.75 9 5 C5.53058454 4.54177532 2.32604951 4.10868317 -1 3 C-0.67 2.01 -0.34 1.02 0 0 Z " fill="#3F8FC4" transform="translate(70,58)"/>
<path d="M0 0 C0.99 0.33 1.98 0.66 3 1 C3.33 1.99 3.66 2.98 4 4 C4.66 4.33 5.32 4.66 6 5 C5.67 6.32 5.34 7.64 5 9 C3.02 6.36 1.04 3.72 -1 1 C-0.67 0.67 -0.34 0.34 0 0 Z " fill="#1273B2" transform="translate(32,45)"/>
<path d="M0 0 C3.375 -0.125 3.375 -0.125 7 0 C7.66 0.66 8.32 1.32 9 2 C8.67 2.66 8.34 3.32 8 4 C2.25 2.25 2.25 2.25 0 0 Z " fill="#297798" transform="translate(66,75)"/>
<path d="M0 0 C2.64 0 5.28 0 8 0 C7.67 1.65 7.34 3.3 7 5 C6.01 4.34 5.02 3.68 4 3 C4 2.34 4 1.68 4 1 C2.68 1.33 1.36 1.66 0 2 C0 1.34 0 0.68 0 0 Z " fill="#D7E0E3" transform="translate(163,150)"/>
<path d="M0 0 C1.32 0 2.64 0 4 0 C4 2 4 2 2.625 3.4375 C2.08875 3.953125 1.5525 4.46875 1 5 C0.01 6.485 0.01 6.485 -1 8 C-1 7.34 -1 6.68 -1 6 C-1.66 6 -2.32 6 -3 6 C-2 4 -1 2 0 0 Z " fill="#A0B1B7" transform="translate(171,150)"/>
<path d="M0 0 C3.465 1.485 3.465 1.485 7 3 C6.34 3.66 5.68 4.32 5 5 C1.875 4.625 1.875 4.625 -1 4 C-0.67 2.68 -0.34 1.36 0 0 Z " fill="#378CC3" transform="translate(51,49)"/>
<path d="M0 0 C1.65 0 3.3 0 5 0 C4.67 1.32 4.34 2.64 4 4 C2.68 4 1.36 4 0 4 C0 2.68 0 1.36 0 0 Z " fill="#FCF7F2" transform="translate(123,152)"/>
<path d="M0 0 C0.66 0.33 1.32 0.66 2 1 C1.360625 1.268125 0.72125 1.53625 0.0625 1.8125 C-2.33131686 2.88667752 -2.33131686 2.88667752 -3 6 C-5.0625 6.6875 -5.0625 6.6875 -7 7 C-2.25 1.125 -2.25 1.125 0 0 Z " fill="#9AD452" transform="translate(129,63)"/>
<path d="M0 0 C2.97 0.99 5.94 1.98 9 3 C8.01 4.485 8.01 4.485 7 6 C5.83054208 5.19152271 4.66449539 4.37810888 3.5 3.5625 C2.8503125 3.11003906 2.200625 2.65757813 1.53125 2.19140625 C1.0259375 1.79824219 0.520625 1.40507813 0 1 C0 0.67 0 0.34 0 0 Z " fill="#227CB6" transform="translate(48,64)"/>
</svg>
